<svg xmlns="http://www.w3.org/2000/svg" xmlns:xlink="http://www.w3.org/1999/xlink" width="500" zoomAndPan="magnify" viewBox="0 0 375 374.999991" height="500" preserveAspectRatio="xMidYMid meet" version="1.0"><defs><g/><clipPath id="225a8a8319"><path d="M 57.121094 39 L 318.230469 39 L 318.230469 263.882812 L 57.121094 263.882812 Z M 57.121094 39 " clip-rule="nonzero"/></clipPath><clipPath id="e155934a05"><path d="M 168.335938 101.496094 L 260.207031 101.496094 L 260.207031 200.992188 L 168.335938 200.992188 Z M 168.335938 101.496094 " clip-rule="nonzero"/></clipPath></defs><rect x="-37.5" width="450" fill="#ffffff" y="-37.499999" height="449.999989" fill-opacity="1"/><rect x="-37.5" width="450" fill="#1c191a" y="-37.499999" height="449.999989" fill-opacity="1"/><g clip-path="url(#225a8a8319)"><path fill="#ffffff" d="M 295.6875 39.015625 L 79.75 39.015625 C 67.371094 39.015625 57.324219 49.0625 57.324219 61.441406 L 57.324219 241.492188 C 57.324219 253.871094 67.371094 263.921875 79.75 263.921875 L 295.6875 263.921875 C 308.066406 263.921875 318.113281 253.871094 318.113281 241.492188 L 318.113281 61.441406 C 318.113281 49.0625 308.066406 39.015625 295.6875 39.015625 Z M 309.144531 241.492188 C 309.144531 248.894531 303.089844 254.949219 295.6875 254.949219 L 79.75 254.949219 C 72.351562 254.949219 66.296875 248.894531 66.296875 241.492188 L 66.296875 61.441406 C 66.296875 54.039062 72.351562 47.984375 79.75 47.984375 L 295.6875 47.984375 C 303.089844 47.984375 309.144531 54.039062 309.144531 61.441406 Z M 309.144531 241.492188 " fill-opacity="1" fill-rule="nonzero"/></g><path fill="#ffffff" d="M 214.003906 112.21875 C 192.339844 112.21875 174.757812 129.847656 174.757812 151.46875 C 174.757812 173.085938 192.339844 190.714844 214.003906 190.714844 C 235.671875 190.714844 253.253906 173.085938 253.253906 151.46875 C 253.253906 129.847656 235.625 112.21875 214.003906 112.21875 Z M 218.492188 181.386719 L 218.492188 168.46875 C 218.492188 166 216.472656 163.980469 214.003906 163.980469 C 211.539062 163.980469 209.519531 166 209.519531 168.46875 L 209.519531 181.386719 C 196.421875 179.414062 186.058594 169.050781 184.085938 155.953125 L 197.003906 155.953125 C 199.472656 155.953125 201.488281 153.933594 201.488281 151.46875 C 201.488281 149 199.472656 146.980469 197.003906 146.980469 L 184.085938 146.980469 C 186.058594 133.882812 196.421875 123.523438 209.519531 121.546875 L 209.519531 134.46875 C 209.519531 136.933594 211.539062 138.953125 214.003906 138.953125 C 216.472656 138.953125 218.492188 136.933594 218.492188 134.46875 L 218.492188 121.546875 C 231.589844 123.523438 241.949219 133.882812 243.921875 146.980469 L 231.003906 146.980469 C 228.539062 146.980469 226.519531 149 226.519531 151.46875 C 226.519531 153.933594 228.539062 155.953125 231.003906 155.953125 L 243.921875 155.953125 C 241.949219 169.050781 231.589844 179.414062 218.492188 181.386719 Z M 218.492188 181.386719 " fill-opacity="1" fill-rule="nonzero"/><path fill="#ffffff" d="M 300.980469 115.089844 C 303.445312 115.089844 305.464844 113.070312 305.464844 110.605469 C 305.464844 108.136719 303.445312 106.117188 300.980469 106.117188 L 294.878906 106.117188 L 294.878906 66.691406 C 294.878906 64.222656 292.859375 62.203125 290.394531 62.203125 L 85.042969 62.203125 C 82.578125 62.203125 80.558594 64.222656 80.558594 66.691406 L 80.558594 236.199219 C 80.558594 238.667969 82.578125 240.683594 85.042969 240.683594 L 290.4375 240.683594 C 292.90625 240.683594 294.925781 238.667969 294.925781 236.199219 L 294.925781 196.769531 L 301.023438 196.769531 C 303.492188 196.769531 305.511719 194.753906 305.511719 192.285156 C 305.511719 189.820312 303.492188 187.800781 301.023438 187.800781 L 294.925781 187.800781 L 294.925781 115.089844 Z M 285.910156 187.84375 L 279.808594 187.84375 C 277.339844 187.84375 275.324219 189.863281 275.324219 192.332031 C 275.324219 194.796875 277.339844 196.816406 279.808594 196.816406 L 285.910156 196.816406 L 285.910156 231.757812 L 89.53125 231.757812 L 89.53125 71.21875 L 285.953125 71.21875 L 285.953125 106.164062 L 279.851562 106.164062 C 277.386719 106.164062 275.367188 108.179688 275.367188 110.648438 C 275.367188 113.117188 277.386719 115.132812 279.851562 115.132812 L 285.953125 115.132812 L 285.953125 187.84375 Z M 285.910156 187.84375 " fill-opacity="1" fill-rule="nonzero"/><path fill="#ffffff" d="M 141.921875 103.5625 L 115.5 103.5625 C 113.035156 103.5625 111.015625 105.578125 111.015625 108.046875 L 111.015625 194.886719 C 111.015625 197.355469 113.035156 199.371094 115.5 199.371094 L 141.921875 199.371094 C 144.390625 199.371094 146.40625 197.355469 146.40625 194.886719 L 146.40625 108.046875 C 146.40625 105.578125 144.390625 103.5625 141.921875 103.5625 Z M 137.4375 190.402344 L 119.988281 190.402344 L 119.988281 112.53125 L 137.4375 112.53125 Z M 137.4375 190.402344 " fill-opacity="1" fill-rule="nonzero"/><g clip-path="url(#e155934a05)"><path fill="#1c191a" d="M 168.335938 101.496094 L 260.207031 101.496094 L 260.207031 200.992188 L 168.335938 200.992188 Z M 168.335938 101.496094 " fill-opacity="1" fill-rule="nonzero"/></g><g fill="#ffffff" fill-opacity="1"><g transform="translate(103.420529, 330.198313)"><g><path d="M 9.25 -10.28125 L 16.515625 -10.28125 L 16.515625 -0.78125 C 15.335938 -0.40625 14.226562 -0.140625 13.1875 0.015625 C 12.144531 0.171875 11.082031 0.25 10 0.25 C 7.238281 0.25 5.128906 -0.5625 3.671875 -2.1875 C 2.210938 -3.8125 1.484375 -6.140625 1.484375 -9.171875 C 1.484375 -12.128906 2.328125 -14.429688 4.015625 -16.078125 C 5.710938 -17.734375 8.0625 -18.5625 11.0625 -18.5625 C 12.9375 -18.5625 14.742188 -18.1875 16.484375 -17.4375 L 15.203125 -14.328125 C 13.867188 -15.003906 12.476562 -15.34375 11.03125 -15.34375 C 9.351562 -15.34375 8.007812 -14.773438 7 -13.640625 C 5.988281 -12.515625 5.484375 -11.003906 5.484375 -9.109375 C 5.484375 -7.117188 5.890625 -5.597656 6.703125 -4.546875 C 7.515625 -3.503906 8.695312 -2.984375 10.25 -2.984375 C 11.0625 -2.984375 11.882812 -3.066406 12.71875 -3.234375 L 12.71875 -7.046875 L 9.25 -7.046875 Z M 9.25 -10.28125 "/></g></g></g><g fill="#ffffff" fill-opacity="1"><g transform="translate(123.274531, 330.198313)"><g><path d="M 13.515625 0 L 12.1875 -4.359375 L 5.515625 -4.359375 L 4.1875 0 L 0 0 L 6.453125 -18.375 L 11.203125 -18.375 L 17.6875 0 Z M 11.25 -7.609375 C 10.03125 -11.554688 9.34375 -13.789062 9.1875 -14.3125 C 9.03125 -14.832031 8.914062 -15.238281 8.84375 -15.53125 C 8.570312 -14.46875 7.785156 -11.828125 6.484375 -7.609375 Z M 11.25 -7.609375 "/></g></g></g><g fill="#ffffff" fill-opacity="1"><g transform="translate(142.251929, 330.198313)"><g><path d="M 10.046875 0 L 5.640625 -14.359375 L 5.53125 -14.359375 C 5.6875 -11.441406 5.765625 -9.492188 5.765625 -8.515625 L 5.765625 0 L 2.296875 0 L 2.296875 -18.296875 L 7.59375 -18.296875 L 11.921875 -4.3125 L 12 -4.3125 L 16.59375 -18.296875 L 21.875 -18.296875 L 21.875 0 L 18.25 0 L 18.25 -8.65625 C 18.25 -9.070312 18.253906 -9.546875 18.265625 -10.078125 C 18.285156 -10.609375 18.34375 -12.023438 18.4375 -14.328125 L 18.328125 -14.328125 L 13.609375 0 Z M 10.046875 0 "/></g></g></g><g fill="#ffffff" fill-opacity="1"><g transform="translate(167.716206, 330.198313)"><g><path d="M 12.84375 0 L 2.296875 0 L 2.296875 -18.296875 L 12.84375 -18.296875 L 12.84375 -15.125 L 6.1875 -15.125 L 6.1875 -11.109375 L 12.375 -11.109375 L 12.375 -7.921875 L 6.1875 -7.921875 L 6.1875 -3.203125 L 12.84375 -3.203125 Z M 12.84375 0 "/></g></g></g><g fill="#ffffff" fill-opacity="1"><g transform="translate(183.362503, 330.198313)"><g><path d="M 12.75 -18.296875 L 16.65625 -18.296875 L 10.4375 0 L 6.203125 0 L 0 -18.296875 L 3.921875 -18.296875 L 7.359375 -7.40625 C 7.554688 -6.769531 7.753906 -6.019531 7.953125 -5.15625 C 8.160156 -4.300781 8.289062 -3.707031 8.34375 -3.375 C 8.425781 -4.144531 8.738281 -5.488281 9.28125 -7.40625 Z M 12.75 -18.296875 "/></g></g></g><g fill="#ffffff" fill-opacity="1"><g transform="translate(201.313019, 330.198313)"><g><path d="M 13.515625 0 L 12.1875 -4.359375 L 5.515625 -4.359375 L 4.1875 0 L 0 0 L 6.453125 -18.375 L 11.203125 -18.375 L 17.6875 0 Z M 11.25 -7.609375 C 10.03125 -11.554688 9.34375 -13.789062 9.1875 -14.3125 C 9.03125 -14.832031 8.914062 -15.238281 8.84375 -15.53125 C 8.570312 -14.46875 7.785156 -11.828125 6.484375 -7.609375 Z M 11.25 -7.609375 "/></g></g></g><g fill="#ffffff" fill-opacity="1"><g transform="translate(220.290415, 330.198313)"><g><path d="M 17.203125 -18.296875 L 17.203125 -6.453125 C 17.203125 -5.109375 16.898438 -3.925781 16.296875 -2.90625 C 15.691406 -1.882812 14.816406 -1.101562 13.671875 -0.5625 C 12.523438 -0.0195312 11.171875 0.25 9.609375 0.25 C 7.253906 0.25 5.425781 -0.351562 4.125 -1.5625 C 2.820312 -2.769531 2.171875 -4.421875 2.171875 -6.515625 L 2.171875 -18.296875 L 6.046875 -18.296875 L 6.046875 -7.09375 C 6.046875 -5.6875 6.328125 -4.648438 6.890625 -3.984375 C 7.460938 -3.328125 8.40625 -3 9.71875 -3 C 10.988281 -3 11.90625 -3.332031 12.46875 -4 C 13.039062 -4.664062 13.328125 -5.707031 13.328125 -7.125 L 13.328125 -18.296875 Z M 17.203125 -18.296875 "/></g></g></g><g fill="#ffffff" fill-opacity="1"><g transform="translate(240.958401, 330.198313)"><g><path d="M 2.296875 0 L 2.296875 -18.296875 L 6.1875 -18.296875 L 6.1875 -3.203125 L 13.609375 -3.203125 L 13.609375 0 Z M 2.296875 0 "/></g></g></g><g fill="#ffffff" fill-opacity="1"><g transform="translate(256.729927, 330.198313)"><g><path d="M 9.359375 0 L 5.484375 0 L 5.484375 -15.078125 L 0.515625 -15.078125 L 0.515625 -18.296875 L 14.328125 -18.296875 L 14.328125 -15.078125 L 9.359375 -15.078125 Z M 9.359375 0 "/></g></g></g><g fill="#ffffff" fill-opacity="1"><g transform="translate(172.931566, 184.448308)"><g><path d="M 40.953125 1.398438 C 64.027344 1.398438 78.90625 -15.683594 77.308594 -39.652344 L 37.855469 -39.652344 L 37.855469 -27.367188 L 60.53125 -27.367188 C 58.53125 -18.878906 51.339844 -13.183594 41.152344 -13.183594 C 28.367188 -13.183594 20.175781 -22.375 20.175781 -34.960938 C 20.175781 -47.746094 28.667969 -56.734375 40.953125 -56.734375 C 48.742188 -56.734375 55.234375 -53.136719 58.632812 -47.046875 L 75.710938 -47.046875 C 71.515625 -61.726562 57.632812 -71.316406 40.652344 -71.316406 C 19.378906 -71.316406 4.296875 -56.234375 4.296875 -34.960938 C 4.296875 -13.585938 19.476562 1.398438 40.953125 1.398438 Z M 40.953125 1.398438 "/></g></g></g><path stroke-linecap="butt" transform="matrix(0.538919, -0.752939, 0.752939, 0.538919, 192.560411, 180.719343)" fill="none" stroke-linejoin="miter" d="M 0.00084672 0.500217 L 5.416516 0.499369 " stroke="#1c191a" stroke-width="1" stroke-opacity="1" stroke-miterlimit="4"/><path stroke-linecap="butt" transform="matrix(0, -0.925932, 0.925932, 0, 213.225283, 187.343836)" fill="none" stroke-linejoin="miter" d="M 0.0000934169 0.499191 L 6.564423 0.499191 " stroke="#1c191a" stroke-width="1" stroke-opacity="1" stroke-miterlimit="4"/><path stroke-linecap="butt" transform="matrix(-0.456462, -0.805601, 0.805601, -0.456462, 233.708368, 181.460261)" fill="none" stroke-linejoin="miter" d="M 0.00242184 0.499146 L 5.418803 0.498791 " stroke="#1c191a" stroke-width="1" stroke-opacity="1" stroke-miterlimit="4"/><path stroke-linecap="butt" transform="matrix(-0.843547, -0.38181, 0.38181, -0.843547, 246.921581, 166.391459)" fill="none" stroke-linejoin="miter" d="M -0.000366075 0.501274 L 5.416611 0.499083 " stroke="#1c191a" stroke-width="1" stroke-opacity="1" stroke-miterlimit="4"/><path stroke-linecap="butt" transform="matrix(-0.925932, 0, 0, -0.925932, 250.445731, 148.112964)" fill="none" stroke-linejoin="miter" d="M 0.000452251 0.501685 L 5.41729 0.501685 " stroke="#1c191a" stroke-width="1" stroke-opacity="1" stroke-miterlimit="4"/><path stroke-linecap="butt" transform="matrix(-0.538919, 0.752939, -0.752939, -0.538919, 234.232664, 119.16947)" fill="none" stroke-linejoin="miter" d="M -0.000924853 0.501626 L 5.418175 0.498324 " stroke="#1c191a" stroke-width="1" stroke-opacity="1" stroke-miterlimit="4"/><path stroke-linecap="butt" transform="matrix(0, 0.925932, -0.925932, 0, 214.151225, 113.691189)" fill="none" stroke-linejoin="miter" d="M 0.000234267 0.500819 L 6.564564 0.500819 " stroke="#1c191a" stroke-width="1" stroke-opacity="1" stroke-miterlimit="4"/><path stroke-linecap="butt" transform="matrix(0.456462, 0.805601, -0.805601, 0.456462, 194.493433, 118.428544)" fill="none" stroke-linejoin="miter" d="M -0.000913335 0.500462 L 5.419138 0.502186 " stroke="#1c191a" stroke-width="1" stroke-opacity="1" stroke-miterlimit="4"/><path stroke-linecap="butt" transform="matrix(0.843547, 0.38181, -0.38181, 0.843547, 182.134973, 130.812267)" fill="none" stroke-linejoin="miter" d="M 0.00137352 0.499774 L 5.41835 0.497583 " stroke="#1c191a" stroke-width="1" stroke-opacity="1" stroke-miterlimit="4"/><path stroke-linecap="butt" transform="matrix(0.925932, 0, 0, 0.925932, 177.203446, 147.187037)" fill="none" stroke-linejoin="miter" d="M -0.000346314 0.498309 L 5.416491 0.498309 " stroke="#1c191a" stroke-width="1" stroke-opacity="1" stroke-miterlimit="4"/><path stroke-linecap="butt" transform="matrix(-0.812728, 0.443649, -0.443649, -0.812728, 185.363884, 164.67034)" fill="none" stroke-linejoin="miter" d="M 0.00221384 0.499179 L 5.835714 0.501746 " stroke="#1c191a" stroke-width="1" stroke-opacity="1" stroke-miterlimit="4"/><path stroke-linecap="butt" transform="matrix(-0.800459, 0.465421, -0.465421, -0.800459, 245.75202, 131.203585)" fill="none" stroke-linejoin="miter" d="M 0.000516379 0.498636 L 5.416481 0.5001 " stroke="#1c191a" stroke-width="1" stroke-opacity="1" stroke-miterlimit="4"/><path stroke-linecap="butt" transform="matrix(-0.0833168, -0.922176, 0.922176, -0.0833168, 217.192973, 186.538214)" fill="none" stroke-linejoin="miter" d="M 0.000663813 0.498198 L 2.41494 0.500292 " stroke="#1c191a" stroke-width="1" stroke-opacity="1" stroke-miterlimit="4"/><path stroke-linecap="butt" transform="matrix(-0.162577, -0.911548, 0.911548, -0.162577, 221.417464, 185.969856)" fill="none" stroke-linejoin="miter" d="M 0.00163145 0.502224 L 2.414687 0.499783 " stroke="#1c191a" stroke-width="1" stroke-opacity="1" stroke-miterlimit="4"/><path stroke-linecap="butt" transform="matrix(-0.384603, -0.842277, 0.842277, -0.384603, 229.882182, 183.493085)" fill="none" stroke-linejoin="miter" d="M -0.000610862 0.501344 L 2.415818 0.50096 " stroke="#1c191a" stroke-width="1" stroke-opacity="1" stroke-miterlimit="4"/><path stroke-linecap="butt" transform="matrix(-0.287582, -0.88014, 0.88014, -0.287582, 225.711947, 185.083963)" fill="none" stroke-linejoin="miter" d="M -0.00137644 0.499921 L 2.417349 0.500227 " stroke="#1c191a" stroke-width="1" stroke-opacity="1" stroke-miterlimit="4"/><path stroke-linecap="butt" transform="matrix(-0.60784, -0.698485, 0.698485, -0.60784, 236.757265, 179.699314)" fill="none" stroke-linejoin="miter" d="M 0.00143882 0.499765 L 2.417555 0.499569 " stroke="#1c191a" stroke-width="1" stroke-opacity="1" stroke-miterlimit="4"/><path stroke-linecap="butt" transform="matrix(-0.665843, -0.643431, 0.643431, -0.665843, 239.847644, 176.763504)" fill="none" stroke-linejoin="miter" d="M 0.00175233 0.499652 L 2.418413 0.499249 " stroke="#1c191a" stroke-width="1" stroke-opacity="1" stroke-miterlimit="4"/><path stroke-linecap="butt" transform="matrix(-0.805178, -0.457207, 0.457207, -0.805178, 245.255964, 169.796751)" fill="none" stroke-linejoin="miter" d="M -0.0000155719 0.49955 L 2.416443 0.500353 " stroke="#1c191a" stroke-width="1" stroke-opacity="1" stroke-miterlimit="4"/><path stroke-linecap="butt" transform="matrix(-0.748741, -0.544737, 0.544737, -0.748741, 242.808709, 173.529377)" fill="none" stroke-linejoin="miter" d="M -0.00162317 0.499521 L 2.414264 0.500034 " stroke="#1c191a" stroke-width="1" stroke-opacity="1" stroke-miterlimit="4"/><path stroke-linecap="butt" transform="matrix(-0.858543, -0.346777, 0.346777, -0.858543, 248.133387, 163.437352)" fill="none" stroke-linejoin="miter" d="M -0.00171272 0.501004 L 2.417419 0.497553 " stroke="#1c191a" stroke-width="1" stroke-opacity="1" stroke-miterlimit="4"/><path stroke-linecap="butt" transform="matrix(-0.896688, -0.230869, 0.230869, -0.896688, 249.422155, 159.524639)" fill="none" stroke-linejoin="miter" d="M -0.00203316 0.498483 L 2.415828 0.498912 " stroke="#1c191a" stroke-width="1" stroke-opacity="1" stroke-miterlimit="4"/><path stroke-linecap="butt" transform="matrix(-0.925924, -0.00402012, 0.00402012, -0.925924, 250.52659, 151.304668)" fill="none" stroke-linejoin="miter" d="M 0.00136515 0.502006 L 2.414487 0.499966 " stroke="#1c191a" stroke-width="1" stroke-opacity="1" stroke-miterlimit="4"/><path stroke-linecap="butt" transform="matrix(-0.913935, -0.148571, 0.148571, -0.913935, 250.157887, 155.52809)" fill="none" stroke-linejoin="miter" d="M 0.00195665 0.500568 L 2.416926 0.501204 " stroke="#1c191a" stroke-width="1" stroke-opacity="1" stroke-miterlimit="4"/><path stroke-linecap="butt" transform="matrix(0.403767, -0.83326, 0.83326, 0.403767, 196.32465, 182.837405)" fill="none" stroke-linejoin="miter" d="M 0.000646988 0.500775 L 2.415749 0.502483 " stroke="#1c191a" stroke-width="1" stroke-opacity="1" stroke-miterlimit="4"/><path stroke-linecap="butt" transform="matrix(0.330363, -0.864992, 0.864992, 0.330363, 200.237994, 184.527057)" fill="none" stroke-linejoin="miter" d="M 0.00137395 0.501077 L 2.416904 0.499774 " stroke="#1c191a" stroke-width="1" stroke-opacity="1" stroke-miterlimit="4"/><path stroke-linecap="butt" transform="matrix(0.104388, -0.920029, 0.920029, 0.104388, 208.768702, 186.766041)" fill="none" stroke-linejoin="miter" d="M 0.00217609 0.501658 L 2.417764 0.499312 " stroke="#1c191a" stroke-width="1" stroke-opacity="1" stroke-miterlimit="4"/><path stroke-linecap="butt" transform="matrix(0.207047, -0.902487, 0.902487, 0.207047, 204.374962, 185.980665)" fill="none" stroke-linejoin="miter" d="M -0.0013772 0.502443 L 2.417922 0.501436 " stroke="#1c191a" stroke-width="1" stroke-opacity="1" stroke-miterlimit="4"/><path stroke-linecap="butt" transform="matrix(0.785625, -0.490045, 0.490045, 0.785625, 181.785696, 169.101786)" fill="none" stroke-linejoin="miter" d="M -0.000367617 0.501674 L 2.417999 0.49863 " stroke="#1c191a" stroke-width="1" stroke-opacity="1" stroke-miterlimit="4"/><path stroke-linecap="butt" transform="matrix(0.740411, -0.556006, 0.556006, 0.740411, 184.197223, 172.61659)" fill="none" stroke-linejoin="miter" d="M 0.000191143 0.50215 L 2.416675 0.501919 " stroke="#1c191a" stroke-width="1" stroke-opacity="1" stroke-miterlimit="4"/><path stroke-linecap="butt" transform="matrix(0.578498, -0.722973, 0.722973, 0.578498, 190.223606, 179.056205)" fill="none" stroke-linejoin="miter" d="M 0.00200744 0.499563 L 2.418024 0.500637 " stroke="#1c191a" stroke-width="1" stroke-opacity="1" stroke-miterlimit="4"/><path stroke-linecap="butt" transform="matrix(0.656029, -0.653435, 0.653435, 0.656029, 186.923752, 176.05074)" fill="none" stroke-linejoin="miter" d="M -0.00047464 0.499758 L 2.415832 0.500937 " stroke="#1c191a" stroke-width="1" stroke-opacity="1" stroke-miterlimit="4"/><path stroke-linecap="butt" transform="matrix(0.925732, 0.0192492, -0.0192492, 0.925732, 177.131023, 150.656431)" fill="none" stroke-linejoin="miter" d="M -0.000288917 0.501947 L 2.41748 0.498089 " stroke="#1c191a" stroke-width="1" stroke-opacity="1" stroke-miterlimit="4"/><path stroke-linecap="butt" transform="matrix(0.920225, -0.102651, 0.102651, 0.920225, 177.3159, 154.959439)" fill="none" stroke-linejoin="miter" d="M 0.000148844 0.498297 L 2.415269 0.500275 " stroke="#1c191a" stroke-width="1" stroke-opacity="1" stroke-miterlimit="4"/><path stroke-linecap="butt" transform="matrix(0.866986, -0.325093, 0.325093, 0.866986, 179.202898, 163.03575)" fill="none" stroke-linejoin="miter" d="M 0.00195004 0.500162 L 2.41695 0.500097 " stroke="#1c191a" stroke-width="1" stroke-opacity="1" stroke-miterlimit="4"/><path stroke-linecap="butt" transform="matrix(0.907118, -0.185709, 0.185709, 0.907118, 178.047576, 158.956732)" fill="none" stroke-linejoin="miter" d="M 0.000235188 0.4999 L 2.416152 0.49928 " stroke="#1c191a" stroke-width="1" stroke-opacity="1" stroke-miterlimit="4"/><path stroke-linecap="butt" transform="matrix(0.837663, 0.394551, -0.394551, 0.837663, 180.741965, 133.336851)" fill="none" stroke-linejoin="miter" d="M -0.00249831 0.499056 L 2.418716 0.50113 " stroke="#1c191a" stroke-width="1" stroke-opacity="1" stroke-miterlimit="4"/><path stroke-linecap="butt" transform="matrix(0.868583, 0.320801, -0.320801, 0.868583, 179.377039, 136.611831)" fill="none" stroke-linejoin="miter" d="M -0.0015367 0.501434 L 2.416963 0.498647 " stroke="#1c191a" stroke-width="1" stroke-opacity="1" stroke-miterlimit="4"/><path stroke-linecap="butt" transform="matrix(0.921125, 0.0942329, -0.0942329, 0.921125, 177.419964, 144.228432)" fill="none" stroke-linejoin="miter" d="M -0.00204856 0.498587 L 2.415468 0.501474 " stroke="#1c191a" stroke-width="1" stroke-opacity="1" stroke-miterlimit="4"/><path stroke-linecap="butt" transform="matrix(0.904716, 0.197079, -0.197079, 0.904716, 178.250633, 140.295444)" fill="none" stroke-linejoin="miter" d="M -0.000128346 0.49814 L 2.417769 0.49819 " stroke="#1c191a" stroke-width="1" stroke-opacity="1" stroke-miterlimit="4"/><path stroke-linecap="butt" transform="matrix(0.539002, 0.752879, -0.752879, 0.539002, 192.086461, 120.077409)" fill="none" stroke-linejoin="miter" d="M 0.00123092 0.499665 L 2.417511 0.501789 " stroke="#1c191a" stroke-width="1" stroke-opacity="1" stroke-miterlimit="4"/><path stroke-linecap="butt" transform="matrix(0.601955, 0.703563, -0.703563, 0.601955, 189.298072, 122.271321)" fill="none" stroke-linejoin="miter" d="M 0.000889403 0.502151 L 2.418307 0.499514 " stroke="#1c191a" stroke-width="1" stroke-opacity="1" stroke-miterlimit="4"/><path stroke-linecap="butt" transform="matrix(0.758291, 0.531363, -0.531363, 0.758291, 183.875925, 127.967219)" fill="none" stroke-linejoin="miter" d="M 0.0000323116 0.501681 L 2.414471 0.49945 " stroke="#1c191a" stroke-width="1" stroke-opacity="1" stroke-miterlimit="4"/><path stroke-linecap="butt" transform="matrix(0.693822, 0.613157, -0.613157, 0.693822, 186.518678, 124.938316)" fill="none" stroke-linejoin="miter" d="M -0.000990475 0.500774 L 2.413954 0.500382 " stroke="#1c191a" stroke-width="1" stroke-opacity="1" stroke-miterlimit="4"/><path stroke-linecap="butt" transform="matrix(0.094548, 0.921092, -0.921092, 0.094548, 209.463257, 113.830027)" fill="none" stroke-linejoin="miter" d="M 0.00185651 0.498893 L 2.414747 0.500599 " stroke="#1c191a" stroke-width="1" stroke-opacity="1" stroke-miterlimit="4"/><path stroke-linecap="butt" transform="matrix(0.173673, 0.909499, -0.909499, 0.173673, 205.953814, 114.351804)" fill="none" stroke-linejoin="miter" d="M -0.00101986 0.498777 L 2.416634 0.500879 " stroke="#1c191a" stroke-width="1" stroke-opacity="1" stroke-miterlimit="4"/><path stroke-linecap="butt" transform="matrix(0.394838, 0.837528, -0.837528, 0.394838, 198.420359, 116.607868)" fill="none" stroke-linejoin="miter" d="M -0.00132023 0.501281 L 2.416079 0.498236 " stroke="#1c191a" stroke-width="1" stroke-opacity="1" stroke-miterlimit="4"/><path stroke-linecap="butt" transform="matrix(0.298286, 0.876571, -0.876571, 0.298286, 202.217554, 115.288836)" fill="none" stroke-linejoin="miter" d="M -0.00115911 0.501802 L 2.414915 0.499548 " stroke="#1c191a" stroke-width="1" stroke-opacity="1" stroke-miterlimit="4"/><path stroke-linecap="butt" transform="matrix(-0.751924, 0.540335, -0.540335, -0.751924, 244.315944, 128.716091)" fill="none" stroke-linejoin="miter" d="M -0.00114265 0.499558 L 2.414166 0.500074 " stroke="#1c191a" stroke-width="1" stroke-opacity="1" stroke-miterlimit="4"/><path stroke-linecap="butt" transform="matrix(-0.702496, 0.6032, -0.6032, -0.702496, 242.117098, 125.931585)" fill="none" stroke-linejoin="miter" d="M 0.000448351 0.497973 L 2.417867 0.499617 " stroke="#1c191a" stroke-width="1" stroke-opacity="1" stroke-miterlimit="4"/><path stroke-linecap="butt" transform="matrix(-0.530019, 0.75923, -0.75923, -0.530019, 236.411605, 120.519527)" fill="none" stroke-linejoin="miter" d="M -0.0000842317 0.501033 L 2.417813 0.500663 " stroke="#1c191a" stroke-width="1" stroke-opacity="1" stroke-miterlimit="4"/><path stroke-linecap="butt" transform="matrix(-0.611928, 0.694907, -0.694907, -0.611928, 239.445178, 123.156921)" fill="none" stroke-linejoin="miter" d="M 0.000540012 0.499624 L 2.418647 0.50072 " stroke="#1c191a" stroke-width="1" stroke-opacity="1" stroke-miterlimit="4"/><path stroke-linecap="butt" transform="matrix(-0.382758, 0.843117, -0.843117, -0.382758, 230.731849, 117.422555)" fill="none" stroke-linejoin="miter" d="M 0.0000614625 0.501985 L 2.416837 0.498231 " stroke="#1c191a" stroke-width="1" stroke-opacity="1" stroke-miterlimit="4"/><path stroke-linecap="butt" transform="matrix(-0.308581, 0.873, -0.873, -0.308581, 226.593623, 115.634589)" fill="none" stroke-linejoin="miter" d="M 0.000487607 0.500828 L 2.416901 0.501325 " stroke="#1c191a" stroke-width="1" stroke-opacity="1" stroke-miterlimit="4"/><path stroke-linecap="butt" transform="matrix(-0.0812977, 0.922356, -0.922356, -0.0812977, 218.199703, 113.972249)" fill="none" stroke-linejoin="miter" d="M -0.00203404 0.500443 L 2.416073 0.499062 " stroke="#1c191a" stroke-width="1" stroke-opacity="1" stroke-miterlimit="4"/><path stroke-linecap="butt" transform="matrix(-0.184364, 0.907392, -0.907392, -0.184364, 222.42544, 114.653824)" fill="none" stroke-linejoin="miter" d="M 0.000711517 0.49885 L 2.415785 0.498916 " stroke="#1c191a" stroke-width="1" stroke-opacity="1" stroke-miterlimit="4"/><path stroke-linecap="butt" transform="matrix(-0.810636, 0.447459, -0.447459, -0.810636, 247.343983, 133.628926)" fill="none" stroke-linejoin="miter" d="M -0.00129066 0.500462 L 2.417523 0.500817 " stroke="#1c191a" stroke-width="1" stroke-opacity="1" stroke-miterlimit="4"/><path stroke-linecap="butt" transform="matrix(-0.847032, 0.374014, -0.374014, -0.847032, 248.566863, 136.670264)" fill="none" stroke-linejoin="miter" d="M 0.00065256 0.50106 L 2.41824 0.498654 " stroke="#1c191a" stroke-width="1" stroke-opacity="1" stroke-miterlimit="4"/></svg>